<svg xmlns="http://www.w3.org/2000/svg" width="1200" height="800" viewBox="0 0 1200 800" role="img" aria-label="Bike parts background">
  <defs>
    <linearGradient id="bg" x1="0" y1="0" x2="1" y2="1">
      <stop offset="0" stop-color="#0f172a"/>
      <stop offset="0.45" stop-color="#111827"/>
      <stop offset="1" stop-color="#0b1220"/>
    </linearGradient>

    <radialGradient id="glow" cx="40%" cy="35%" r="70%">
      <stop offset="0" stop-color="#60a5fa" stop-opacity="0.22"/>
      <stop offset="0.5" stop-color="#22c55e" stop-opacity="0.08"/>
      <stop offset="1" stop-color="#000000" stop-opacity="0"/>
    </radialGradient>

    <filter id="soft" x="-20%" y="-20%" width="140%" height="140%">
      <feGaussianBlur stdDeviation="10" result="b"/>
      <feColorMatrix in="b" type="matrix"
        values="1 0 0 0 0  0 1 0 0 0  0 0 1 0 0  0 0 0 0.9 0"/>
      <feBlend in="SourceGraphic" mode="screen"/>
    </filter>

    <filter id="shadow" x="-50%" y="-50%" width="200%" height="200%">
      <feDropShadow dx="0" dy="10" stdDeviation="16" flood-color="#000" flood-opacity="0.35"/>
    </filter>

    <linearGradient id="metal" x1="0" y1="0" x2="1" y2="1">
      <stop offset="0" stop-color="#e5e7eb"/>
      <stop offset="0.25" stop-color="#9ca3af"/>
      <stop offset="0.5" stop-color="#f3f4f6"/>
      <stop offset="0.75" stop-color="#6b7280"/>
      <stop offset="1" stop-color="#d1d5db"/>
    </linearGradient>

    <linearGradient id="metalDark" x1="0" y1="0" x2="1" y2="1">
      <stop offset="0" stop-color="#9ca3af"/>
      <stop offset="0.4" stop-color="#4b5563"/>
      <stop offset="1" stop-color="#d1d5db"/>
    </linearGradient>

    <pattern id="noise" width="120" height="120" patternUnits="userSpaceOnUse">
      <rect width="120" height="120" fill="transparent"/>
      <circle cx="10" cy="20" r="1" fill="#ffffff" opacity="0.06"/>
      <circle cx="70" cy="60" r="1" fill="#ffffff" opacity="0.05"/>
      <circle cx="110" cy="15" r="1" fill="#ffffff" opacity="0.04"/>
      <circle cx="35" cy="95" r="1" fill="#ffffff" opacity="0.05"/>
      <circle cx="95" cy="100" r="1" fill="#ffffff" opacity="0.04"/>
      <circle cx="55" cy="35" r="1" fill="#ffffff" opacity="0.05"/>
      <circle cx="20" cy="60" r="1" fill="#ffffff" opacity="0.03"/>
      <circle cx="85" cy="25" r="1" fill="#ffffff" opacity="0.04"/>
    </pattern>

    <!-- Simple gear path -->
    <path id="gear" d="M100 0 120 10 145 5 160 25 185 35 180 60 200 80 180 100 185 125 160 135 145 155 120 150 100 160 80 150 55 155 40 135 15 125 20 100 0 80 20 60 15 35 40 25 55 5 80 10Z" />
  </defs>

  <!-- Background -->
  <rect width="1200" height="800" fill="url(#bg)"/>
  <rect width="1200" height="800" fill="url(#glow)"/>
  <rect width="1200" height="800" fill="url(#noise)" opacity="0.8"/>

  <!-- Soft diagonal highlights -->
  <g opacity="0.25" filter="url(#soft)">
    <path d="M-150 620 C 220 420, 450 420, 820 210" stroke="#93c5fd" stroke-width="90" stroke-linecap="round" fill="none"/>
    <path d="M80 920 C 380 720, 560 650, 980 470" stroke="#34d399" stroke-width="70" stroke-linecap="round" fill="none"/>
  </g>

  <!-- Parts collage -->
  <g filter="url(#shadow)" opacity="0.92">
    <!-- Big gear -->
    <g transform="translate(210 160) scale(2.2) rotate(-14)">
      <use href="#gear" fill="url(#metalDark)" opacity="0.95"/>
      <circle cx="100" cy="80" r="44" fill="#111827" opacity="0.55"/>
      <circle cx="100" cy="80" r="26" fill="url(#metal)" opacity="0.9"/>
    </g>

    <!-- Secondary gear -->
    <g transform="translate(740 120) scale(1.65) rotate(18)">
      <use href="#gear" fill="url(#metal)" opacity="0.85"/>
      <circle cx="100" cy="80" r="40" fill="#0b1220" opacity="0.5"/>
      <circle cx="100" cy="80" r="22" fill="url(#metalDark)" opacity="0.92"/>
    </g>

    <!-- Chain rings -->
    <g transform="translate(880 450)">
      <circle cx="140" cy="120" r="108" fill="none" stroke="url(#metal)" stroke-width="18" opacity="0.9"/>
      <circle cx="140" cy="120" r="66" fill="none" stroke="#0b1220" stroke-opacity="0.55" stroke-width="16"/>
      <circle cx="140" cy="120" r="18" fill="url(#metalDark)" opacity="0.95"/>

      <!-- teeth -->
      <g fill="url(#metalDark)" opacity="0.82">
        <rect x="136" y="0" width="8" height="24" rx="2"/>
        <rect x="136" y="216" width="8" height="24" rx="2"/>
        <rect x="0" y="116" width="24" height="8" rx="2"/>
        <rect x="256" y="116" width="24" height="8" rx="2"/>
        <rect x="52" y="40" width="24" height="8" rx="2" transform="rotate(-35 64 44)"/>
        <rect x="206" y="40" width="24" height="8" rx="2" transform="rotate(35 218 44)"/>
        <rect x="52" y="192" width="24" height="8" rx="2" transform="rotate(35 64 196)"/>
        <rect x="206" y="192" width="24" height="8" rx="2" transform="rotate(-35 218 196)"/>
      </g>
    </g>

    <!-- Bolts scatter -->
    <g opacity="0.8" fill="url(#metal)">
      <circle cx="620" cy="520" r="10"/>
      <circle cx="680" cy="560" r="7"/>
      <circle cx="580" cy="590" r="6"/>
      <circle cx="700" cy="640" r="8"/>
      <circle cx="520" cy="520" r="6"/>
      <circle cx="460" cy="600" r="7"/>
      <circle cx="360" cy="520" r="8"/>
      <circle cx="300" cy="610" r="6"/>
      <circle cx="240" cy="540" r="7"/>
      <circle cx="980" cy="260" r="7"/>
      <circle cx="1040" cy="310" r="6"/>
      <circle cx="1090" cy="240" r="8"/>
    </g>

    <!-- Crank arm -->
    <g transform="translate(380 520) rotate(-10)">
      <path d="M0 0 C 90 -40, 210 -40, 330 10 L 330 70 C 210 20, 90 20, 0 60 Z" fill="#0b1220" opacity="0.55"/>
      <path d="M10 10 C 95 -25, 215 -25, 320 18 L 320 58 C 215 20, 95 20, 10 52 Z" fill="url(#metalDark)" opacity="0.9"/>
      <circle cx="44" cy="32" r="18" fill="url(#metal)" opacity="0.9"/>
      <circle cx="44" cy="32" r="8" fill="#0b1220" opacity="0.55"/>
    </g>
  </g>

  <!-- Vignette -->
  <rect width="1200" height="800" fill="#000" opacity="0.18"/>
</svg>
